# xmcd
#
# Track frame offsets: 
#        150
#        2200
#        27252
#        51780
#        85105
#        101467
#        118140
#        147415
#        153060
#        177120
#        202777
#
# Disc length: 3138 seconds
#
# Revision: 1
# Processed by: cddbd v1.5.2PL0 Copyright (c) Steve Scherf et al.
# Submitted via: ExactAudioCopy v0.99pb5
#
DISCID=810c400b
DTITLE=Maze Featuring Frankie Beverly - Live In Los Angeles [CDOne)
DYEAR=1996
DGENRE=R&B
TTITLE0=Introduction
TTITLE1=Running Away
TTITLE2=Too Many Games
TTITLE3=I Wanna Thank You
TTITLE4=You
TTITLE5=Happy Feelings
TTITLE6=Feel That You're Feeling
TTITLE7=Frank's Rap
TTITLE8=I Want To Feel Wanted
TTITLE9=We Are One
TTITLE10=Joy And Pain
EXTD=
EXTT0=
EXTT1=
EXTT2=
EXTT3=
EXTT4=
EXTT5=
EXTT6=
EXTT7=
EXTT8=
EXTT9=
EXTT10=
PLAYORDER=
